<svg id="Слой_1" data-name="Слой 1" xmlns="http://www.w3.org/2000/svg" xmlns:xlink="http://www.w3.org/1999/xlink" viewBox="0 0 571.25 448.45"><defs><style>.cls-1{fill:url(#Безымянный_градиент_22);}</style><linearGradient id="Безымянный_градиент_22" x1="695.09" y1="800.02" x2="1295.01" y2="800.02" gradientTransform="matrix(-0.73, 0.58, 0.6, 0.72, 919.93, -385.5)" gradientUnits="userSpaceOnUse"><stop offset="0" stop-color="#00c6ff"/><stop offset="1" stop-color="#c872f2"/></linearGradient></defs><title>back_tablet</title><path class="cls-1" d="M894.14,832.29c-18.81,45.06-43.25,83.22-76.55,107.78-33.68,24.47-76.31,35.71-119.09,37.4-42.49,2.15-85.3-4.49-137.82-17.8-52.61-12.94-115-32.18-160-77-44.92-45.19-72.53-115.58-30.17-144.32C412.76,710,525,723.29,585.11,696.4c59.7-27,67.24-94.15,102.9-132,36-37.4,100-45.5,146.65-20.92s75.82,81.49,83.7,136.47C926.32,734.55,913,786.87,894.14,832.29Z" transform="translate(-349.46 -529.42)"/></svg>