<svg id="Слой_1" data-name="Слой 1" xmlns="http://www.w3.org/2000/svg" xmlns:xlink="http://www.w3.org/1999/xlink" viewBox="0 0 2500 830"><defs><style>.cls-1{fill:url(#Безымянный_градиент_22);}.cls-2{fill:url(#Безымянный_градиент_27);}</style><linearGradient id="Безымянный_градиент_22" x1="1486.98" y1="621.16" x2="2288.82" y2="621.16" gradientTransform="matrix(0.72, -0.6, 0.59, 0.73, 103.24, 1186.97)" gradientUnits="userSpaceOnUse"><stop offset="0" stop-color="#00c6ff"/><stop offset="1" stop-color="#c872f2"/></linearGradient><linearGradient id="Безымянный_градиент_27" x1="1161.08" y1="112.55" x2="1328.06" y2="189.91" gradientUnits="userSpaceOnUse"><stop offset="0" stop-color="#0072ff"/><stop offset="1" stop-color="#00c6ff"/></linearGradient></defs><title>back</title><path class="cls-1" d="M1635.11,801.41c-70-24.72-136.93-77.92-156.95-145.44s7.39-149.39,65.83-186.72c59-36.83,149-29.12,200-100.31,51-71.71,63-222.32,111.21-270.3,48.76-48,133.79,6.62,181.25,77.34,46.94,70.73,55.81,157.56,59,229.9,3.7,72.33,1.19,130.18-12.77,185.3-13.42,55.63-39.31,108.56-80.2,146.3-40.91,37.21-97.33,59.24-161.31,72.1C1776.64,822.45,1704.59,826.16,1635.11,801.41Z"/><path class="cls-2" d="M1367.87,155.23c8.85,26.68-11.2,63.24-36,77.83s-54.83,6.64-86.09-12.82c-31.1-19.46-63.53-50.57-57.49-73.27s50.71-37,91.84-36C1321.29,112.18,1358.88,128.69,1367.87,155.23Z"/></svg>