<svg id="Слой_1" data-name="Слой 1" xmlns="http://www.w3.org/2000/svg" xmlns:xlink="http://www.w3.org/1999/xlink" viewBox="0 0 782 1059"><defs><style>.cls-1{fill:url(#Безымянный_градиент_22);}</style><linearGradient id="Безымянный_градиент_22" x1="670.39" y1="836.62" x2="1270.31" y2="836.62" gradientTransform="matrix(-0.42, -0.84, -0.83, 0.44, 1738.67, 1219.54)" gradientUnits="userSpaceOnUse"><stop offset="0" stop-color="#00c6ff"/><stop offset="1" stop-color="#c872f2"/></linearGradient></defs><title>back_mob</title><path class="cls-1" d="M533.12,976.11c-40.12-27.82-72.33-59.7-89.38-97.4-16.88-38.05-18.94-82.09-11.64-124.28,6.78-42,22.23-82.47,46.24-131C502,574.65,533.87,517.64,587.11,483c53.58-34.48,128.19-46.75,147.43.69C753.43,531,717,638,730.67,702.36c13.89,64,78,85.45,107.55,128.25,29,43,23.57,107.34-10.23,147.77s-95.54,57.09-151,53.29C622,1028,573.58,1004.1,533.12,976.11Z"/></svg>