<?xml version="1.0" encoding="utf-8"?>
<!-- Generator: Adobe Illustrator 24.0.1, SVG Export Plug-In . SVG Version: 6.00 Build 0)  -->
<svg version="1.1" id="Слой_1" focusable="false"
	 xmlns="http://www.w3.org/2000/svg" xmlns:xlink="http://www.w3.org/1999/xlink" x="0px" y="0px" viewBox="0 0 448 512"
	 style="enable-background:new 0 0 448 512;" xml:space="preserve">
<style type="text/css">
	.st0{fill:#A0A0A0;}
</style>
<g>
	<path class="st0" d="M291.2,232.8c-26.3,1.9-46.7,23.8-44.8,48.6c1.6,24.8,24.5,43.3,51.1,41.1c0.9,0,1.6-0.3,2.5-0.3v-89.3
		C297.1,232.5,294,232.5,291.2,232.8z"/>
	<path class="st0" d="M399.5,26.9h-351C21.7,26.9,0,48.6,0,75.4v351c0,26.8,21.7,48.5,48.5,48.5h351c26.8,0,48.5-21.7,48.5-48.5
		v-351C448,48.6,426.3,26.9,399.5,26.9z M167,352.6h-43.3V146.9H167V352.6z M342.6,345.4c-3.1,2.5-6.6,4.7-10.7,6.6
		c-10,5-29.8,8.2-41.4,9.1c-47,3.4-87.8-30.4-90.9-75.9c-3.1-45.5,32.6-85.3,79.6-89c7.2-0.3,14.1,0,20.7,0.9v-75.2h42.6V345.4z"/>
</g>
</svg>
