<?xml version="1.0" encoding="utf-8"?>
<!-- Generator: Adobe Illustrator 24.0.1, SVG Export Plug-In . SVG Version: 6.00 Build 0)  -->
<svg version="1.1" id="Слой_1" focusable="false"
	 xmlns="http://www.w3.org/2000/svg" xmlns:xlink="http://www.w3.org/1999/xlink" x="0px" y="0px" viewBox="0 0 448 512"
	 style="enable-background:new 0 0 448 512;" xml:space="preserve">
<style type="text/css">
	.st0{fill:#A0A0A0;}
</style>
<g>
	<polygon class="st0" points="173.6,178.7 149.6,263.1 202.8,263.1 178.2,178.7 	"/>
	<path class="st0" d="M399.5,26.9h-351C21.7,26.9,0,48.6,0,75.4v351c0,26.8,21.7,48.5,48.5,48.5h351c26.8,0,48.5-21.7,48.5-48.5
		v-351C448,48.6,426.3,26.9,399.5,26.9z M233.1,352.4l-20.5-50.8h-73.7l-15.6,50.8H76.6L152,138.5h50l77.8,213.9H233.1z
		 M342.9,352.4h-44.2V192.6h44.2V352.4z M321.7,175.3c-14.5,0-26.2-11.7-26.2-26.2c0-14.5,11.7-26.2,26.2-26.2s26.2,11.7,26.2,26.2
		C347.9,163.6,336.2,175.3,321.7,175.3z"/>
</g>
</svg>
