<?xml version="1.0" encoding="utf-8"?>
<!-- Generator: Adobe Illustrator 24.0.1, SVG Export Plug-In . SVG Version: 6.00 Build 0)  -->
<svg version="1.1" id="Слой_1" focusable="false"
	 xmlns="http://www.w3.org/2000/svg" xmlns:xlink="http://www.w3.org/1999/xlink" x="0px" y="0px" viewBox="0 0 448 512"
	 style="enable-background:new 0 0 448 512;" xml:space="preserve">
<style type="text/css">
	.st0{fill:#A0A0A0;}
</style>
<g>
	<path class="st0" d="M156.5,178.3h-21.2v63.5h22.4c25.4,0,37.5-11.8,37.5-33.6C195.2,186.2,181.6,178.3,156.5,178.3z"/>
	<path class="st0" d="M399.5,26.9h-351C21.7,26.9,0,48.6,0,75.4v351c0,26.8,21.7,48.5,48.5,48.5h351c26.8,0,48.5-21.7,48.5-48.5
		v-351C448,48.6,426.3,26.9,399.5,26.9z M160.8,279.4h-25.4v71.7H89.1V140.2h70.5c45.1,0,81.4,16.6,81.4,67.8
		C240.9,257.6,204,279.4,160.8,279.4z M315.3,355c-12.1,0-25.4-3.3-37.5-8.8l-14.5-8.5v-33.3c11.8,5.1,35.4,12.1,35.4,12.1
		c5.7,2.4,11.8,3.6,17.5,3.6c13.6,0,19.7-5.4,19.7-13.9c0-10.6-15.4-15.4-31.5-21.8c-19.1-7.6-41.1-20.6-41.1-47.2
		c0-29.9,23.6-50.2,59.6-50.2c13.3,0,24.8,3,34.5,7.6l10,5.1v42.3l-10-6.4c-11.2-8.2-22.1-13.6-33-13.6c-12.1,0-17.8,4.8-17.8,12.7
		c0,10.3,14.8,14.2,30.9,20.3c19.7,7.6,42,18.8,42,48.1C379.4,332.3,357.1,355,315.3,355z"/>
</g>
</svg>
