<svg id="Слой_1" data-name="Слой 1" xmlns="http://www.w3.org/2000/svg" xmlns:xlink="http://www.w3.org/1999/xlink" viewBox="0 0 2500 1200"><defs><style>.cls-1{fill:none;}.cls-2{fill:url(#Безымянный_градиент_15);}.cls-3{fill:url(#Безымянный_градиент_16);}.cls-4{clip-path:url(#clip-path);}</style><linearGradient id="Безымянный_градиент_15" x1="391.35" y1="669.69" x2="1020.84" y2="347.29" gradientUnits="userSpaceOnUse"><stop offset="0" stop-color="#f772d1"/><stop offset="0.25" stop-color="#e772dc"/><stop offset="0.71" stop-color="#d072ec"/><stop offset="1" stop-color="#c872f2"/></linearGradient><linearGradient id="Безымянный_градиент_16" x1="1087.67" y1="825.04" x2="1276.74" y2="689.39" gradientUnits="userSpaceOnUse"><stop offset="0" stop-color="#00f2fe"/><stop offset="0.09" stop-color="#0ae9fe"/><stop offset="0.49" stop-color="#30c8fe"/><stop offset="0.8" stop-color="#47b3fe"/><stop offset="1" stop-color="#4facfe"/></linearGradient><clipPath id="clip-path"><rect class="cls-1" x="631.83" y="609.07" width="592.19" height="128" rx="30"/></clipPath></defs><title>gradient_1</title><path class="cls-2" d="M322.3,685.41S375.41,870.05,594,830.83,1029,718.09,1018.81,470.94s-61.27-273.7-163.4-277.79-290,34.73-401.87,149.62-134.81,190-137.87,217.53-6.64,74.05,0,99.58Z"/><path class="cls-3" d="M1103.07,825s75.06,18.38,108.76-10,96.52-95.74,59-131.74-114.12,13-114.12,13-27.58,23.75-42.9,44.43-39.06,37.53-49.78,42.12-16.09,9.49-13.79,16.24,10.72,13.64,23.74,18.23A235,235,0,0,0,1103.07,825Z"/><g class="cls-4"><path class="cls-3" d="M1103.07,825s75.06,18.38,108.76-10,96.52-95.74,59-131.74-114.12,13-114.12,13-27.58,23.75-42.9,44.43-39.06,37.53-49.78,42.12-16.09,9.49-13.79,16.24,10.72,13.64,23.74,18.23A235,235,0,0,0,1103.07,825Z"/></g></svg>