<?xml version="1.0" encoding="UTF-8" standalone="no"?><!DOCTYPE svg PUBLIC "-//W3C//DTD SVG 1.1//EN" "http://www.w3.org/Graphics/SVG/1.1/DTD/svg11.dtd"><svg width="100%" height="100%" viewBox="0 0 2209 332" version="1.1" xmlns="http://www.w3.org/2000/svg" xmlns:xlink="http://www.w3.org/1999/xlink" xml:space="preserve" xmlns:serif="http://www.serif.com/" style="fill-rule:evenodd;clip-rule:evenodd;stroke-linejoin:round;stroke-miterlimit:2;"><rect id="Artboard1" x="0" y="0" width="2208.23" height="331.88" style="fill:none;"/><clipPath id="_clip1"><rect x="0" y="0" width="2208.23" height="331.88"/></clipPath><g clip-path="url(#_clip1)"><path d="M1101.72,1.649l0.338,293.889c-0,-0 364.569,-8.563 508.847,-75.253c144.279,-66.69 182.886,-87.999 226.849,-94.608c43.962,-6.608 59.526,-10.727 115.88,-0.988c56.354,9.739 227.707,72.67 260.322,103.108c32.616,30.438 63.929,-218.584 63.929,-218.584l-75.643,-65.899l-1056.69,-68.754l-43.828,127.089Z" style="fill:#fff8f5;"/><path d="M1103.32,-0.108l-0.093,295.62c0,-0 -364.569,-8.562 -508.847,-75.253c-144.279,-66.69 -182.886,-87.999 -226.849,-94.607c-43.962,-6.609 -59.526,-10.728 -115.88,-0.989c-56.355,9.739 -227.707,72.67 -260.322,103.108c-32.616,30.438 -47.52,-198.53 -47.52,-198.53l44.862,-125.394l1069.72,29.127l44.925,66.918Z" style="fill:#f9f8ff;"/></g></svg>